Coordinates
version=1
nRows=8
nColumns=36
inDegrees=yes

Units are S.I. units (second, meters, Newtons, ...)
If the header above contains a line with 'inDegrees', this indicates whether rotational values are in degrees (yes) or radians (no).

endheader
time	pelvis_tilt	pelvis_list	pelvis_rotation	pelvis_tx	pelvis_ty	pelvis_tz	hip_flexion_r	hip_adduction_r	hip_rotation_r	knee_angle_r	knee_angle_r_beta	ankle_angle_r	subtalar_angle_r	mtp_angle_r	hip_flexion_l	hip_adduction_l	hip_rotation_l	knee_angle_l	knee_angle_l_beta	ankle_angle_l	subtalar_angle_l	mtp_angle_l	lumbar_extension	lumbar_bending	lumbar_rotation	arm_flex_r	arm_add_r	arm_rot_r	elbow_flex_r	pro_sup_r	arm_flex_l	arm_add_l	arm_rot_l	elbow_flex_l	pro_sup_l
      7.85000000	     22.62094961	     -7.06363020	      4.98443933	     -0.45393971	      0.58832596	     -0.38033968	     57.79816705	      6.10241653	      1.65455294	     33.95726592	      0.59266610	      9.24168185	     -4.48054099	     -7.49999987	     60.42751332	      6.96379517	      7.31769321	     36.95441865	      0.64497628	    -11.82922885	    -24.94103178	     -7.49999987	    -52.56792856	      3.57544533	     10.17766523	     92.29419909	    -16.49563894	     41.89554512	     62.65721330	     81.35717383	     15.59453290	    -39.52312843	     16.30761124	     81.11144509	     70.55927679
      7.86666670	     22.49714211	     -7.16701571	      4.32839890	     -0.45298122	      0.59027821	     -0.38312050	     57.14823776	      6.41004521	      1.78269977	     32.92719418	      0.57468795	      9.30588049	     -2.83460265	     -7.49999987	     60.24000308	      6.69041797	      7.23700070	     37.39366971	      0.65264266	     -9.22052402	    -24.37330567	     -7.49999987	    -51.72267997	      3.49316254	      9.26194432	     98.45662896	    -15.37945431	     45.66259610	     59.73795061	     80.69954518	     20.86749293	    -39.19589178	     17.75638298	     79.39803598	     70.96244556
      7.88333330	     22.15211923	     -7.38877993	      3.59294858	     -0.45123879	      0.58803084	     -0.38570717	     57.38168476	      6.66882240	      1.68493415	     32.69291163	      0.57059895	     11.15350051	     -0.07250424	     -7.49999987	     60.55117862	      6.23207229	      7.07812266	     37.43523478	      0.65336810	     -7.56013080	    -23.59309501	     -7.49999987	    -50.78046633	      3.43927898	      8.94340374	    104.39618264	    -13.92403040	     48.07766326	     57.21993683	     83.33233453	     26.56389294	    -38.19721372	     19.53672457	     76.72514951	     75.04296272
      7.90000000	     21.76496748	     -7.53820194	      2.94155532	     -0.44549861	      0.58815862	     -0.38427400	     58.76478919	      6.94455880	      1.31950010	     34.46937267	      0.60160404	     11.50665844	      0.61518966	     -7.49999987	     61.26530258	      5.93406495	      7.16805245	     38.20554899	      0.66681262	     -5.75767634	    -22.78651441	     -7.49999987	    -50.05033991	      3.49836282	      8.12485768	    110.06151108	    -12.17652025	     50.70829585	     55.64752531	     83.66791142	     30.59601631	    -37.38469117	     20.47138367	     74.72444647	     76.68485953
      7.91666670	     21.30043818	     -7.58503226	      2.78523954	     -0.43676022	      0.58387891	     -0.38217707	     60.32512553	      6.94157216	      0.85656289	     36.51490246	      0.63730527	     12.80703644	      1.58372106	     -7.49999987	     62.55351272	      5.98661973	      7.21246041	     39.39465318	      0.68756641	     -4.53291428	    -22.02541084	     -7.49999987	    -49.35057129	      3.53533345	      7.02511397	    115.69692802	    -10.58289243	     53.29211503	     53.95451449	     84.25491242	     35.17807443	    -36.76217107	     21.39892826	     72.87399599	     77.70335312
      7.93333330	     20.63990670	     -7.60000428	      2.43230266	     -0.43210751	      0.58774976	     -0.38212823	     62.00993190	      7.03327454	      0.45665863	     38.80184504	      0.67721995	     14.80089851	      1.72211899	     -7.49999987	     63.52845711	      6.01999405	      7.64482241	     40.06653743	      0.69929300	     -2.59061729	    -21.81287895	     -7.49999987	    -48.65067628	      3.25283271	      5.41085066	    120.14428383	     -9.51543709	     55.03976936	     53.84229251	     84.93770882	     39.90167194	    -36.39212612	     21.87614048	     70.24940625	     79.32569523
      7.95000000	     20.05786466	     -7.73877272	      2.29134392	     -0.43651848	      0.57887195	     -0.38464608	     63.58608607	      6.95031890	      0.06351407	     40.51108394	      0.70705180	     15.08271458	      3.58598213	     -7.49999987	     64.59792947	      6.21693606	      7.80673483	     41.22108984	      0.71944374	     -1.01237925	    -20.83601573	     -7.49999987	    -48.39130580	      3.21970455	      4.34971036	    125.35324030	     -8.78506981	     57.35838852	     53.45910121	     85.66886980	     45.55201177	    -35.41296666	     23.38960218	     68.12063867	     80.20904380
      7.96666670	     19.11221562	     -7.61801175	      1.65964618	     -0.43087309	      0.57938295	     -0.38554425	     65.42675090	      6.85295915	     -0.33484003	     42.56598095	      0.74291652	     16.29764915	      3.71169849	     -7.49999987	     65.83618669	      6.48703722	      8.33564389	     42.26193893	      0.73760998	      1.59067533	    -19.82672691	     -7.49999987	    -47.73509224	      2.80152110	      3.50529532	    129.94895378	     -7.99071498	     59.23015664	     53.14467115	     85.76420547	     49.65969568	    -34.31020056	     24.55166112	     66.10742066	     80.74354341
